# xmcd CD database file
#
# Track frame offsets:
#	150
#	32415
#	78645
#	107155
#	167635
#	181595
#	220700
#
# Disc length: 3457 seconds
#
# Revision: 0
# Processed by: cddbd v1.5.2PL0 Copyright (c) Steve Scherf et al.
# Submitted via: CDex 1.51
#
DISCID=4d0d7f07
DTITLE=Albert Mangelsdorff Percussion Orchestra - Lanaya
DYEAR=1993
DGENRE=Jazz
TTITLE0=Monsieur Sel
TTITLE1=Tokwe
TTITLE2=Les Deux Bandits
TTITLE3=Sum Sum
TTITLE4=Cool April
TTITLE5=Togtherness
TTITLE6=Landscapes
EXTD=YEAR: 1993
EXTT0=
EXTT1=
EXTT2=
EXTT3=
EXTT4=
EXTT5=
EXTT6=
PLAYORDER=
